<svg width="40" height="40" fill="none" xmlns="http://www.w3.org/2000/svg"><g clip-path="url(#clip0_138_15078)"><path d="M38.375 25.275l-3.55-3.55a4.1 4.1 0 00-5.662 0l-1.25 1.25a4.525 4.525 0 01-6.388 0c-.962-.963-1.575-1.613-2.187-2.25-.613-.638-1.25-1.325-2.25-2.313a4.513 4.513 0 010-6.374l1.25-1.25a3.976 3.976 0 001.175-2.825 4.026 4.026 0 00-1.175-2.825l-3.55-3.575A5.363 5.363 0 0011.013 0a5.3 5.3 0 00-3.75 1.563L3.875 4.925a13.038 13.038 0 000 18.425c1.95 1.95 4.175 4.15 6.388 6.45 2.212 2.3 4.387 4.45 6.325 6.45a13.037 13.037 0 0018.412 0l3.375-3.375a5.363 5.363 0 001.563-3.75 5.3 5.3 0 00-1.563-3.85zm-1.887 5.663l-.363.312-3.625-3.637a1.338 1.338 0 10-1.887 1.887l3.687 3.688-1.125 1.124a10.375 10.375 0 01-14.65 0 455.443 455.443 0 01-6.25-6.374c-2.137-2.226-4.45-4.513-6.4-6.463a10.375 10.375 0 010-14.65L7 5.7l3.563 3.675A1.348 1.348 0 1012.5 7.5L8.75 3.75l.363-.362A2.637 2.637 0 0111 2.6a2.675 2.675 0 011.888.788L16.45 7a1.338 1.338 0 01.287 1.445c-.066.16-.164.307-.287.43l-1.25 1.25a7.187 7.187 0 000 10.15c1.05.975 1.625 1.588 2.3 2.225.675.637 1.25 1.325 2.238 2.3a7.188 7.188 0 0010.15 0l1.25-1.25a1.375 1.375 0 011.887 0l3.55 3.55a2.652 2.652 0 01.788 1.887 2.686 2.686 0 01-.875 1.938v.012z" fill="#1F4B3F"/></g><defs><clipPath id="clip0_138_15078"><path fill="#fff" d="M0 0h40v40H0z"/></clipPath></defs></svg>